<?xml version="1.0" encoding="UTF-8" standalone="no"?>
<svg
   xmlns:dc="http://purl.org/dc/elements/1.1/"
   xmlns:cc="http://creativecommons.org/ns#"
   xmlns:rdf="http://www.w3.org/1999/02/22-rdf-syntax-ns#"
   xmlns:svg="http://www.w3.org/2000/svg"
   xmlns="http://www.w3.org/2000/svg"
   xmlns:sodipodi="http://sodipodi.sourceforge.net/DTD/sodipodi-0.dtd"
   xmlns:inkscape="http://www.inkscape.org/namespaces/inkscape"
   version="1.0"
   width="1264px"
   height="432px"
   viewBox="0 0 12640 4320"
   preserveAspectRatio="xMidYMid meet"
   id="svg108"
   sodipodi:docname="ViperHawkBannerUpScaled.svg"
   inkscape:version="1.0 (4035a4fb49, 2020-05-01)">
  <metadata
     id="metadata114">
    <rdf:RDF>
      <cc:Work
         rdf:about="">
        <dc:format>image/svg+xml</dc:format>
        <dc:type
           rdf:resource="http://purl.org/dc/dcmitype/StillImage" />
      </cc:Work>
    </rdf:RDF>
  </metadata>
  <defs
     id="defs112" />
  <sodipodi:namedview
     inkscape:document-rotation="0"
     pagecolor="#ffffff"
     bordercolor="#666666"
     borderopacity="1"
     objecttolerance="10"
     gridtolerance="10"
     guidetolerance="10"
     inkscape:pageopacity="0"
     inkscape:pageshadow="2"
     inkscape:window-width="1920"
     inkscape:window-height="1057"
     id="namedview110"
     showgrid="false"
     inkscape:zoom="0.5"
     inkscape:cx="1374.422"
     inkscape:cy="216.58307"
     inkscape:window-x="-8"
     inkscape:window-y="-8"
     inkscape:window-maximized="1"
     inkscape:current-layer="svg108" />
  <g
     id="layer101"
     fill="#000000"
     stroke="none">
    <path
       d="m 8169,4286 c -9,-20 -12,-40 -8,-49 5,-8 4,-29 -1,-48 -6,-19 -7,-49 -4,-66 4,-21 2,-33 -5,-33 -6,0 -11,7 -11,15 0,8 -4,15 -10,15 -5,0 -10,-12 -10,-27 v -28 l -26,33 c -14,17 -32,32 -40,32 -17,0 -17,-5 -4,-31 17,-32 -17,-24 -49,12 l -28,30 -8,-103 c -5,-57 -9,-140 -9,-186 -1,-60 -5,-85 -15,-91 -12,-8 -9,-15 12,-41 25,-29 34,-50 22,-50 -3,0 -21,18 -41,40 -20,22 -39,38 -42,36 -2,-3 14,-42 37,-88 l 41,-83 -3,-131 c -2,-118 -3,-128 -15,-100 -7,17 -14,42 -16,56 -6,43 -36,164 -46,185 -13,27 -51,164 -54,195 -2,14 -14,50 -28,80 -25,54 -35,79 -43,117 -2,10 -8,32 -14,48 -33,103 -41,132 -41,152 0,32 -30,63 -61,63 -43,0 -62,-31 -65,-108 -1,-37 -9,-87 -18,-111 -9,-24 -16,-63 -16,-87 0,-23 -5,-46 -10,-49 -6,-4 -7,-13 -2,-23 5,-10 2,-42 -8,-81 -14,-53 -18,-60 -23,-40 -4,13 -7,39 -7,57 0,20 -4,31 -10,27 -6,-4 -10,-84 -10,-206 0,-160 -3,-206 -15,-229 -9,-18 -11,-30 -5,-30 11,0 8,-99 -3,-117 -3,-5 -3,-28 0,-52 5,-34 15,-53 47,-83 67,-66 103,-79 204,-76 l 87,3 -35,22 c -19,12 -34,26 -32,30 1,4 -4,8 -10,8 -7,0 -14,8 -16,18 -6,28 3,25 107,-45 14,-10 34,-18 44,-18 10,0 20,-6 23,-13 7,-19 93,-20 122,-1 23,15 24,20 18,70 -7,58 4,94 29,94 8,0 18,-7 23,-16 8,-15 10,-15 15,0 12,31 26,16 44,-46 l 17,-63 9,40 c 15,69 14,69 43,46 15,-12 29,-20 30,-18 2,2 -5,27 -16,55 l -20,52 h 34 c 19,0 38,-4 41,-10 3,-5 24,-10 45,-10 21,0 42,-5 45,-10 4,-6 15,-8 26,-5 16,5 19,1 19,-24 0,-17 5,-31 10,-31 6,0 10,11 10,23 0,38 10,38 58,4 90,-64 142,-152 142,-239 0,-32 -3,-38 -20,-38 -37,0 -84,-27 -147,-84 -33,-31 -68,-56 -76,-56 -26,0 -48,37 -62,105 -14,66 -37,115 -54,115 -14,0 -27.3903,-41.5976 -27.3903,-128.5976 0,-46 2.3903,-81.4024 -2.6097,-81.4024 -12,0 -40,61 -54,120 -20,86 -33,56 -28,-65 2,-60 16,-100 48,-138 16,-20 23,-41 23,-73 0,-97 52,-151 134,-141 22,3 84,10 137,16 98,11 163,29 200,54 17,12 28.5313,7.0804 86.5313,-8.9196 35.7846,-15.7508 97.0334,-20.7298 139.0647,-19.3236 C 8976.5624,2526.7631 8997,2526 9028,2506 c 105,-66 283,-140 400,-166 92,-20 106,-31 120,-97 23,-104 -26,-212 -157,-346 -51,-52 -63,-71 -56,-82 6,-8 100,-76 210,-151 110,-76 425,-291 701,-479 275,-189 510,-348 522,-354 30,-16 29,5 -4,70 -14,28 -24,55 -22,60 7,21 470,-364 654,-544 143,-139 158,-143 125,-39 -21,70 -81,174 -153,268 -75,97 -77,101 -32,74 230,-139 535,-393 715,-596 55,-63 105,-111 111,-108 13,8 3,60 -29,154 -45,132 -120,263 -233,405 -53,66 -218,229 -293,289 -113,91 -5,34 219,-115 132,-88 242,-176 334,-268 83,-83 94,-80 60,15 -67,192 -302,464 -590,684 -66,50 -120,93 -120,95 0,8 135,-48 283,-117 59,-28 110,-48 114,-45 12,12 -52,91 -157,197 -152,151 -316,263 -490,335 -45,18 -84,36 -88,40 -4,4 25,6 63,5 39,-1 76,-2 83,-1 65,6 -132,165 -285,231 -38,15 -111,41 -163,56 -52,15 -99,31 -104,35 -4,4 26,10 68,14 43,4 76,12 76,18 0,18 -95,101 -144,128 -25,13 -46,26 -46,29 0,3 49,25 109,49 357,140 527,339 476,556 -17,74 -40,124 -98,210 -44,65 -202,226 -249,255 -27,16 -28,19 -12,28 15,9 16,12 5,26 -11,13 -11,22 -3,39 6,12 14,47 18,77 3,30 10,61 14,70 24,48 40,93 40,111 0,11 7,33 15,49 13,24 22,30 49,30 19,0 37,-6 40,-12 5,-10 7,-10 12,0 10,21 24,13 24,-15 l 1,-28 20,28 c 13,16 30,27 45,27 h 24 v -132 c 1,-213 24,-325 75,-352 11,-6 22,-12 24,-13 2,-2 -2,-9 -9,-18 -11,-13 -2,-15 79,-15 56,0 91,-4 91,-10 0,-7 6,-7 19,-1 12,7 28,7 50,-2 25,-9 36,-9 54,2 38,24 95,22 124,-5 14,-13 30,-24 35,-24 5,0 20,-8 34,-17 29,-19 78,-26 112,-18 20,5 22,10 17,35 -6,29 -6,29 27,19 18,-6 43,-13 55,-16 12,-3 28,-11 34,-19 7,-9 31,-14 63,-14 43,1 57,6 91,35 36,31 37,35 18,35 -17,0 -23,6 -23,21 0,11 -4,28 -10,38 -6,13 -4,33 9,69 12,33 17,67 15,94 l -5,43 21,-38 c 12,-22 19,-45 16,-53 -3,-8 14,-40 38,-72 30,-39 46,-71 51,-102 8,-50 21,-80 35,-80 17,0 98,82 111,112 11,26 13,27 29,13 16,-14 18,-12 35,32 l 18,47 -42,80 c -29,55 -39,82 -31,90 7,7 -2,21 -32,47 -36,30 -41,39 -30,51 10,12 9,18 -3,28 -8,7 -15,29 -15,50 0,31 9,48 55,101 103,118 115,134 135,166 l 11.929,32 -20.929,32 c -20,21 -35,29 -47,25 -11,-3 -37,-1 -58,4 -35,8 -45,5 -100,-29 -34,-20 -72,-44 -86,-52 -14,-8 -41,-29 -61,-47 l -37,-34 -5,74 c -3,40 -9,85 -12,101 -6,24 -4,27 16,27 h 22 l -21,23 c -12,13 -22,31 -22,39 0,31 -34,76 -60,81 -14,2 -33,8 -42,12 -16,6 -18,0 -18,-59 v -66 h -34 c -31,0 -35,-4 -42,-32 -7,-32 -7,-32 -17,-10 -21,47 -28,17 -26,-115 1,-129 0,-137 -21,-153 -19,-15 -20,-18 -6,-30 10,-7 14,-20 11,-31 -5,-14 -1,-19 10,-19 15,0 16,-8 9,-67 -4,-38 -6,-89 -5,-114 2,-39 -1,-47 -22,-56 -24,-11 -24,-10 -33,64 -6,41 -6,77 -1,80 4,3 1,13 -8,23 -9,10 -14,23 -11,28 3,5 -1,34 -8,63 -8,30 -12,57 -9,61 2,5 -5,33 -16,63 -17,46 -18,55 -6,55 21,0 19,17 -6,51 -12,17 -23,53 -26,86 -5,47 -56,183 -68,183 -2,0 -11,-24 -20,-52 -10,-29 -24,-60 -31,-68 -7,-9 -11,-26 -7,-38 3,-12 -1,-32 -9,-44 -8,-13 -18,-41 -23,-63 -6,-33 -9,-36 -15,-20 -5,15 -10,5 -19,-40 -33,-161 -43,-195 -57,-195 -8,0 -14,10 -14,25 0,13 -11,50 -25,81 -14,31 -25,62 -25,68 0,6 -14,29 -30,50 -17,22 -30,45 -30,52 0,7 -20,52 -45,98 -40,77 -45,93 -45,153 -1,64 -2,67 -15,43 -8,-14 -14,-32 -15,-40 0,-8 -14,-26 -30,-40 l -31,-25 -4,-153 c -2,-84 -7,-157 -10,-162 -6,-10 -64,-24 -72,-17 -2,3 5,19 17,35 15,20 20,40 18,63 -3,31 -6,34 -33,32 -16,-1 -32,2 -36,8 -13,21 -108,0 -144,-32 -40,-35 -85,-46 -125,-29 -25,10 -30,18 -30,48 0,19 -5,53 -11,76 -34,132 -37,135 -88,87 -25,-23 -33,-27 -38,-15 -3,9 -19,14 -45,14 h -39 l 5,-247 c 2,-137 8,-274 11,-306 l 7,-59 -26,17 c -14,9 -30,13 -37,9 -9,-5 -10,0 -6,18 5,17 2,30 -8,38 -24,20 -14,160 11,160 21,0 17,19 -11,52 -19,23 -25,41 -25,78 0,67 -13,94 -57,124 -45,31 -63,33 -63,6 0,-26 -20,-26 -27,-1 -7,26 -53,44 -89,35 -43,-10 -45,-13 -29,-38 11,-16 14,-47 13,-114 l -2,-92 -38,37 -38,37 v 101 c 0,111 -13,145 -54,145 -28,0 -42,-15 -52,-54 -6,-26 -8,-27 -17,-10 -33,61 -87,35 -87,-42 0,-25 -7,-61 -16,-82 -10,-24 -15,-65 -14,-117 3,-223 4,-218 -62,-213 -51,5 -48,-7 5,-18 40,-9 42,-11 40,-43 -1,-19 -10,-42 -21,-53 -17,-17 -22,-18 -41,-7 -11,8 -21,17 -21,20 0,3 -11,23 -25,43 -14,21 -27,43 -28,49 -1,7 -17,32 -34,56 -18,24 -33,49 -33,56 0,6 11,27 25,46 14,19 45,61 70,94 24,33 57,74 72,91 24,25 29,38 25,67 -5,42 -21,59 -59,61 -16,1 -34,5 -40,9 -7,4 -22,3 -33,-3 -16,-9 -25,-8 -36,0 -11,10 -22,3 -59,-38 -24,-27 -60,-57 -80,-66 -20,-10 -44,-33 -57,-56 -13,-22 -26,-40 -30,-40 -11,0 -10,68 1,74 5,3 3,23 -5,43 -7,21 -13,64 -14,95 0,52 -4,62 -36,98 -45,49 -68,51 -95,6 -11,-19 -26,-37 -34,-40 -8,-3 -15,-14 -15,-25 0,-11 -4,-22 -9,-26 -6,-3 -13,-37 -17,-75 -8,-81 -21,-99 -57,-75 -14,9 -28,23 -31,31 -3,8 -12,14 -20,14 -9,0 -31,8 -51,17 -30,14 -35,21 -30,40 5,23 -8,32 -20,14 -3,-6 -18,-5 -38,1 -17,6 -48,11 -67,12 -34,1 -35,2 -44,54 -5,28 -12,52 -15,52 -3,-1 -33,-36 -65,-80 -33,-43 -62,-78 -65,-77 -3,0 -25,-3 -49,-7 -30,-6 -48,-16 -59,-34 -10,-15 -27,-40 -40,-55 -13,-16 -23,-36 -23,-44 0,-9 -8,-22 -17,-29 -12,-9 -14,-13 -5,-14 8,0 11,-7 8,-18 -5,-14 3,-22 30,-35 35,-17 35,-17 27,-65 -4,-26 -7,-61 -7,-79 v -32 l -23,31 c -13,18 -23,36 -23,40 0,5 -10,22 -21,37 -12,16 -18,34 -15,40 4,6 -1,14 -11,18 -10,3 -26,14 -36,25 -10,10 -28,18 -41,18 -24,0 -86,27 -86,38 0,3 21,47 46,96 l 46,91 -64,-62 c -35,-35 -67,-63 -71,-63 -4,0 -6,26 -6,58 1,31 -6,107 -15,167 -9,61 -14,129 -10,153 6,38 4,40.0113 -15,40.0113 -11,0 -21,-3.0113 -21,-10.0113 0,-9 -3,-9 -12,0 -7,7 -37.221,10.4532 -68.221,10.4532 -54,0 -55.779,0.5468 -70.779,-32.4532 z m 2115,-701 c -3,-38 -7,-71 -8,-73 -2,-1 -16,3 -32,8 l -30,11 -2,142 -1,142 40,-80 c 38,-77 39,-83 33,-150 z m -1134,125 c 11,-14 19,-17 26,-10 7,7 18,5 36,-10 30,-23 41,-25 68,-8 30,19 38,2 44,-101 5,-71 3,-97 -6,-103 -11,-6 -10,-10 0,-17 8,-5 16,-34 19,-71 4,-55 2,-64 -16,-77 -15,-10 -21,-25 -21,-54 0,-28 -4,-39 -15,-39 -19,0 -58,21 -68,38 -4,6 -17,12 -27,12 -10,0 -22,5 -25,11 -4,6 -13,8 -20,5 -8,-3 -29,3 -47,12 l -33,16 59,8 c 53,7 65,5 104,-17 29,-16 42,-20 39,-11 -3,8 1,20 9,26 8,7 14,18 14,25 0,7 7,18 15,25 11,9 12,16 5,25 -6,7 -8,19 -4,28 6,17 -26,86 -49,106 -8,6 -20,25 -27,41 -10,25 -15,28 -27,19 -11,-9 -17,-8 -28,7 -8,10 -15,23 -15,28 0,5 -7,3 -15,-4 -18,-15 -68,-5 -89,18 -14,16 -14,21 0,47 10,19 11,31 5,33 -6,2 -11,8 -11,14 0,19 83,1 100,-22 z m 1464,-250 c 38,-42 49,-65 18,-37 -10,9 -33,20 -50,23 -33,7 -36,11 -26,38 9,24 18,20 58,-24 z m -995,-36 c 25,-42 25,-44 7,-44 -8,0 -18,10 -21,23 -15,51 -16,57 -12,57 3,0 14,-16 26,-36 z m 2325,-30 c 20,-8 21,-57 2,-73 -11,-9 -15,-5 -20,20 -11,58 -9,64 18,53 z m -2010,-55 c -8,-14 -24,-10 -24,6 0,9 6,12 15,9 8,-4 12,-10 9,-15 z m -1226,-20 c -3,-18 1,-44 8,-58 6,-14 15,-40 19,-58 l 6,-32 -54,32 c -60,36 -64,56 -16,84 16,10 28,22 28,28 -2,19 1,35 7,35 4,0 4,-14 2,-31 z m 1572,-19 c 0,-18 -2,-19 -20,-8 -11,7 -20,16 -20,20 0,5 9,8 20,8 13,0 20,-7 20,-20 z m -2561,-65 v -20 l -9,20 c -5,11 -9,29 -9,40 v 20 l 9,-20 c 5,-11 9,-29 9,-40 z m 2219,3 3,-47 -43,-11 c -24,-6 -49,-13 -56,-15 -7,-3 -1,10 13,29 14,18 25,36 25,39 0,25 23,58 38,55 13,-2 18,-15 20,-50 z m 732,-28 c 13,-82 22,-98 35,-57 3,12 9,17 11,10 3,-7 1,-21 -5,-32 -15,-27 -14,-51 3,-51 7,0 25,-9 39,-20 14,-11 35,-20 47,-20 21,0 22,-3 18,-65 -8,-123 -87,-190 -260,-219 -143,-25 -268,11 -372,105 -57,52 -57,53 24,139 l 52,54 -29,8 c -15,5 -37,6 -48,4 -20,-5 -20,-5 -1,9 11,8 26,15 33,15 19,0 16,21 -12,76 -39,77 -30,104 37,104 34,0 38,-3 38,-24 0,-14 -4,-36 -10,-50 -6,-16 -6,-27 0,-31 17,-11 11,-43 -10,-50 -23,-7 -25,-16 -8,-33 8,-8 11,-43 9,-105 l -3,-93 34,-18 c 29,-15 39,-16 76,-7 29,8 46,20 54,36 6,13 15,22 20,19 4,-3 23,11 42,31 31,33 35,42 40,118 4,45 9,102 12,127 3,25 6,55 6,67 0,23 15,29 79,32 l 37,1 z m -2931,-47 c 1,-7 -6,-13 -14,-13 -17,0 -18,4 -8,39 6,23 7,23 14,5 4,-10 8,-25 8,-31 z m 1736,-80 c 28,-58 38,-65 21,-15 -8,23 -12,42 -7,42 25,0 181,-186 181,-217 0,-26 -193,-84 -322,-98 l -68,-7 v 111 c 0,61 3,111 6,111 3,0 14,-10 25,-22 l 18,-23 1,23 c 0,29 42,72 70,72 21,0 27,14 10,25 -11,7 20,44 35,41 6,-1 19,-21 30,-43 z m -473,-77 c 4,-7 13,-4 26,7 21,20 24,18 134,-82 26,-24 48,-39 48,-33 0,6 -11,37 -25,67 -21,48 -22,57 -9,62 24,9 30,-4 54,-112 13,-55 25,-106 27,-112 8,-19 -35,-16 -85,7 -44,20 -147,95 -172,126 -8,9 -37,34 -63,55 l -48,38 53,-6 c 29,-3 56,-11 60,-17 z"
       id="path2"
       sodipodi:nodetypes="ccccssssccscccccccsscccccccccccsscsscsccssscscccccccsccscccscccccccccscsccssscsscscssscccsccccsccccccccccccccccccccsccsccccscccsccscscccccccccscssccccscccccssccccsccccscccsscccccsccscscccscccscccccccsccccsccsccscsccccccscccccsscccsccscccccccsssscscccccccscscccccscccsccccccccscscscccccccssccscccccscscccssccccccccccscccccsscccssccccccccccccscccccsccsccccsscccscccssssccccccccccscccccccsscsccccccccscccccccscccsscccccccscsccccccscccccccccscscssssccsccscccccsccccccsssccccccccscsscccsscccccccssccccscccccssccsscccsccccccscccccccccc" />
    <path
       d="M3736 4274 c-40 -41 -48 -91 -44 -269 1 -88 2 -189 0 -225 -2 -36 0 -91 4 -122 4 -38 2 -67 -6 -88 -11 -27 -16 -30 -46 -24 -31 6 -33 5 -40 -31 -5 -28 -1 -49 17 -87 48 -103 126 -135 202 -83 29 19 38 21 44 11 6 -11 26 -12 93 -6 l85 7 51 57 51 56 29 -45 c44 -71 113 -100 230 -100 99 1 112 6 174 67 l35 34 10 -29 c16 -49 54 -69 139 -75 73 -4 76 -4 106 27 l32 31 28 -30 c27 -29 31 -30 114 -30 71 0 89 3 105 19 10 10 23 15 28 11 10 -10 105 -30 143 -30 48 0 76 19 86 57 l9 35 48 -46 c42 -41 52 -46 93 -46 55 0 135 25 162 50 20 19 21 19 37 -6 12 -19 23 -24 48 -22 18 1 42 -4 54 -10 12 -7 42 -12 67 -12 34 0 48 5 60 21 13 19 18 20 47 10 62 -21 108 -14 145 23 40 40 46 89 14 129 -17 21 -29 25 -89 29 -39 2 -73 7 -78 11 -4 4 -7 38 -6 75 1 37 1 87 2 110 0 32 8 54 27 79 33 44 48 102 28 110 -8 3 -14 11 -14 18 0 8 -14 15 -32 17 -18 2 -33 8 -33 15 0 6 -3 15 -7 19 -5 4 -8 -1 -8 -10 0 -14 -6 -16 -29 -11 -20 4 -30 2 -34 -8 -3 -9 -25 -16 -55 -19 -29 -3 -63 -14 -81 -27 l-31 -23 -45 26 c-24 15 -47 31 -50 36 -8 13 -152 13 -160 0 -3 -5 -19 -10 -36 -10 -16 0 -29 -5 -29 -12 0 -6 -8 -21 -18 -32 -10 -12 -29 -56 -42 -98 -28 -93 -35 -91 -79 20 -48 120 -65 142 -103 142 -19 -1 -50 -12 -73 -28 -34 -24 -41 -35 -49 -77 -4 -28 -14 -70 -21 -95 l-13 -45 -7 33 c-4 17 -11 32 -15 32 -10 0 -28 46 -36 94 -4 21 -20 53 -36 71 -27 32 -31 33 -62 22 -51 -19 -85 -51 -101 -97 -8 -23 -13 -45 -11 -49 6 -9 -20 -119 -31 -134 -5 -7 -16 -32 -24 -57 l-14 -45 -11 87 c-12 86 -47 178 -69 178 -6 0 -21 13 -33 29 -12 16 -46 41 -76 54 -49 23 -64 25 -132 20 -57 -5 -87 -12 -110 -28 -36 -24 -114 -111 -114 -126 0 -18 -21 -8 -30 15 -9 25 -95 81 -171 112 -65 25 -70 37 -52 116 11 48 20 67 33 71 22 6 38 72 23 96 -5 9 -31 27 -58 41 -27 14 -50 31 -53 38 -2 7 -21 12 -41 12 -28 0 -45 -7 -65 -26z m224 -516 c29 -47 23 -179 -9 -211 -13 -13 -47 15 -54 46 -3 12 -10 39 -15 59 -10 40 1 91 27 122 19 23 29 20 51 -16z m502 -6 c23 -19 38 -74 38 -132 -1 -41 -4 -47 -41 -72 -28 -20 -52 -28 -83 -28 -47 0 -57 8 -74 57 -10 30 -9 32 19 42 35 12 37 27 5 35 l-24 6 21 41 c35 71 93 92 139 51z m1213 8 c23 -26 69 -26 93 0 19 20 19 20 37 0 13 -15 19 -42 23 -113 4 -81 2 -98 -16 -133 l-21 -39 6 51 c5 47 3 52 -23 73 -25 20 -38 22 -136 20 -60 -1 -111 1 -113 3 -3 2 -2 28 2 57 4 39 13 59 32 77 33 31 90 33 116 4z m-457 -220 c4 -50 2 -60 -11 -60 -9 0 -23 -10 -31 -22 -15 -21 -16 -21 -36 -3 -23 21 -22 30 21 110 38 68 51 62 57 -25z m-293 20 c21 -40 19 -66 -7 -100 -20 -28 -23 -29 -40 -13 -24 22 -23 57 4 104 12 22 23 39 25 39 1 0 9 -13 18 -30z"
       id="path4" />
    <path
       d="M6416 3941 c-17 -18 -18 -28 -10 -69 9 -45 28 -64 86 -84 4 -2 12 -38 18 -82 15 -105 -1 -216 -32 -216 -60 0 -76 -53 -32 -104 23 -26 34 -30 99 -34 41 -2 84 -2 97 1 43 11 50 39 59 240 7 180 18 241 33 183 8 -34 47 -35 114 -1 98 49 98 21 0 -66 -146 -129 -165 -219 -69 -322 81 -88 220 -89 286 -3 53 69 42 145 -23 167 -30 10 -33 13 -20 23 25 18 78 114 78 140 0 13 5 37 11 54 20 57 -45 144 -131 176 -38 14 -74 16 -220 12 -96 -3 -184 -6 -195 -7 -11 0 -45 2 -75 6 -49 6 -57 5 -74 -14z"
       id="path6" />
    <path
       d="M6489 3271 c-36 -36 -38 -81 -8 -131 31 -51 48 -59 111 -60 56 0 58 1 93 46 40 53 44 83 15 129 -22 36 -50 45 -132 45 -41 0 -54 -5 -79 -29z"
       id="path8" />
    <path
       d="M6006 1469 c-33 -39 -34 -103 -6 -279 12 -69 25 -159 30 -200 5 -41 16 -102 26 -135 11 -37 15 -71 10 -88 -6 -25 -10 -28 -36 -22 -27 6 -29 4 -36 -29 -5 -31 -1 -44 32 -92 21 -31 52 -63 68 -71 36 -19 109 -12 136 12 19 17 20 16 31 -8 10 -21 15 -24 30 -17 10 6 42 10 71 10 46 0 58 5 90 32 38 33 68 98 68 147 0 22 5 17 30 -29 61 -113 139 -155 283 -155 77 1 77 1 120 43 l43 43 38 -36 c29 -27 46 -35 75 -35 21 0 41 -3 44 -6 8 -9 135 -14 165 -7 27 6 29 37 7 108 -8 27 -13 51 -11 53 3 2 16 -13 29 -34 50 -72 105 -90 164 -55 33 21 43 18 43 -10 0 -24 56 -69 87 -69 58 0 123 59 143 128 l7 27 21 -35 c54 -89 122 -131 200 -122 58 6 126 43 130 70 2 12 6 22 9 22 2 0 30 -20 61 -44 77 -59 105 -65 141 -29 15 16 30 35 32 42 4 11 14 8 44 -12 69 -47 122 -31 155 46 46 107 -7 215 -94 193 -14 -3 -32 -13 -40 -22 -15 -14 -17 -13 -25 8 -5 13 -18 31 -30 42 -11 10 -18 23 -15 28 3 5 -3 19 -14 31 -15 17 -21 42 -26 116 -5 79 -10 99 -28 118 -12 13 -27 22 -33 19 -5 -2 -17 -7 -26 -10 -10 -5 -19 0 -25 14 -9 20 -10 20 -46 -10 -48 -39 -56 -79 -34 -168 9 -37 16 -78 16 -92 0 -15 4 -30 9 -35 5 -6 12 -29 16 -53 l7 -43 -29 7 c-29 7 -68 33 -106 70 -12 12 -38 29 -57 38 -54 26 -73 43 -67 61 4 8 13 15 22 15 19 0 84 -41 109 -69 11 -11 22 -21 26 -21 4 0 10 27 13 61 9 77 -10 116 -86 182 -67 56 -103 61 -181 21 -55 -27 -87 -71 -101 -132 -4 -18 -12 -31 -18 -29 -5 1 -29 30 -52 63 -25 35 -50 60 -63 62 -12 2 -34 18 -49 35 -28 33 -28 33 -120 28 -14 -1 -31 -14 -45 -35 l-22 -33 -61 33 c-34 19 -69 34 -79 34 -9 0 -30 -15 -47 -32 -16 -18 -44 -38 -62 -44 -24 -8 -34 -19 -42 -45 -5 -19 -13 -39 -17 -45 -4 -6 -10 -30 -14 -53 -7 -41 4 -81 43 -154 21 -40 10 -43 -21 -7 -17 21 -26 43 -26 66 0 19 -4 34 -9 34 -5 0 -19 28 -32 63 -25 68 -48 106 -65 107 -5 0 -23 14 -40 31 -16 17 -47 42 -70 55 -37 22 -47 23 -123 17 l-83 -6 -46 -54 c-26 -30 -51 -66 -56 -81 -5 -15 -14 -35 -21 -45 -12 -17 -14 -15 -34 16 -44 72 -167 157 -227 157 -35 0 -42 20 -37 98 4 52 10 72 19 72 8 0 14 10 14 24 0 13 2 31 6 39 8 21 -42 74 -75 82 -16 3 -37 15 -47 26 -27 30 -77 25 -108 -12z m273 -525 c12 -15 25 -43 29 -63 10 -40 8 -118 -2 -128 -9 -10 -56 38 -56 58 0 9 -7 22 -16 30 -12 10 -14 23 -9 57 12 81 21 88 54 46z m535 -4 c28 -34 46 -87 46 -139 0 -44 -38 -81 -84 -81 -39 0 -58 18 -82 79 -14 36 -15 49 -6 75 7 18 12 38 12 46 0 23 32 50 61 50 18 0 36 -10 53 -30z m462 -58 c-12 -11 -17 7 -9 34 l8 29 3 -28 c2 -16 1 -31 -2 -35z m307 -128 c-8 -24 -17 -44 -19 -44 -2 0 -4 33 -4 73 l0 72 19 -29 c18 -26 18 -32 4 -72z"
       id="path10" />
    <path
       d="m 3940,1423 c -41,-20 -80,-43 -87,-52 -25,-32 -15,-103 22,-165 33,-54 37,-76 14,-76 -5,0 -9,7 -9,15 0,21 -59,20 -120,-2 -45,-16 -49,-16 -86,2 -34,16 -46,17 -94,7 -31,-7 -65,-12 -77,-12 -28,0 -73,-37 -88,-73 -12,-29 -13,-29 -24,-10 -6,12 -38,40 -72,62 -57,38 -66,41 -130,41 -37,0 -71,-4 -74,-10 -3,-5 -19,-10 -34,-10 -21,0 -31,-6 -36,-22 -5,-17 -8,-19 -12,-8 -17,46 -31,50 -159,50 -138,0 -188,-14 -199,-57 -6,-25 19,-83 41,-96 8,-4 14,-17 14,-27 0,-10 4,-21 9,-24 17,-11 23,-83 10,-108 -9,-17 -12,-69 -11,-190 l 3,-168 h -25 c -27,0 -56,-41 -56,-78 0,-29 38,-72 64,-72 12,0 38,-14 57,-31 67,-62 121,-83 156,-61 23,15 25,75 4,143 -19,59 -20,75 -10,150 5,46 9,98 7,117 -2,31 12,51 35,52 4,0 17,-19 27,-42 10,-24 44,-67 75,-96 50,-47 60,-52 101,-52 70,0 140,27 181,71 20,21 38,45 39,53 1,8 6,22 11,31 8,14 15,9 47,-33 55,-71 85,-86 173,-84 l 74,2 -3,-57 c -3,-53 -5,-57 -32,-64 -39,-11 -66,-37 -66,-65 0,-54 140,-154 216,-154 55,0 60,23 63,270 1,118 4,216 6,218 2,2 8,-14 14,-35 12,-45 38,-72 101,-104 55,-27 187,-43 210,-24 8,7 26,16 40,20 31,9 144,68 148,77 2,3 32,-23 67,-58 60,-60 66,-64 110,-64 109,0 194,55 227,148 26,70 23,107 -9,132 -24,18 -39,21 -135,19 -60,-1 -111,1 -113,3 -3,2 -2,28 2,57 4,39 13,59 32,77 33,31 90,33 116,4 18,-20 60,-26 81,-12 26,17 34,50 21,88 -9,29 -27,48 -75,81 -59,40 -67,43 -132,43 -38,0 -72,-4 -75,-10 -3,-5 -19,-10 -36,-10 -16,0 -29,-5 -29,-12 0,-6 -7,-20 -17,-30 -22,-24 -73,-182 -73,-227 -1,-34 -1,-35 -15,-16 -38,53 -83,87 -132,101 -29,9 -53,18 -53,22 0,4 25,5 55,4 46,-3 63,1 101,23 91,53 128,158 86,247 -25,54 -118,148 -147,148 -13,0 -26,4 -30,9 -3,6 -27,13 -53,17 -25,4 -61,13 -79,20 -47,20 -69,17 -153,-23 z m 278,-189 c 23,-15 27,-30 14,-52 -13,-19 -103,-26 -161,-12 -43,10 -51,16 -51,35 0,49 136,69 198,29 z M 3000,1027 c 0,-2 -9,-30 -21,-63 -17,-48 -20,-73 -15,-134 6,-74 6,-74 -13,-55 -17,18 -18,29 -10,125 6,81 12,107 25,117 17,12 34,17 34,10 z m 295,-67 c 10,-11 31,-20 46,-20 h 28 l -6,-57 c -3,-32 -6,-59 -7,-60 -3,-4 -207,-5 -211,-1 -3,2 -2,28 2,57 4,39 13,59 32,77 33,31 90,33 116,4 z m 389,-13 c 16,-12 18,-25 14,-110 -3,-86 -6,-98 -27,-117 -29,-24 -40,-25 -70,-4 -37,26 -52,74 -44,144 5,49 11,65 31,80 29,23 70,26 96,7 z m 231,-57 c -8,-9 -15,-22 -15,-28 0,-6 -4,-14 -10,-17 -6,-4 -10,17 -10,57 l 1,63 24,-30 c 21,-26 23,-31 10,-45 z m 204,-71 c 19,-7 36,-22 42,-37 12.2273,-89.46124 -3.9067,-39.32283 -11,-73 0,-13 -54,-11 -68,3 -18,18 -15,118 3,118 1,0 17,-5 34,-11 z"
       id="path12"
       sodipodi:nodetypes="cccsscccscccscsccsccsccccsssccccccccscsccccccsscscccccssccccccccccscssccccscccscccccccscscccccscscccccccccccccccsccccccccssc" />
    <path
       d="M8683 1341 c-56 -35 -56 -114 0 -184 l30 -39 -22 -17 c-31 -24 -39 -66 -24 -124 14 -55 34 -82 75 -103 109 -56 216 74 195 237 -3 23 -46 90 -73 114 -7 6 -23 28 -38 50 -55 87 -87 101 -143 66z"
       id="path14" />
    <path
       sodipodi:nodetypes="cccccccssccccscccscccccccccccccccsccccccccscsccccccsccccccccscccccccscccccccsccscccccccccssscccccccccccccccccsccscccccsccccccccsc"
       d="m 2194,1166 c -49,-18 -83,-51 -99,-96 -8,-23 -13,-45 -11,-49 6,-9 -20,-119 -31,-134 -5,-7 -16,-32 -24,-57 l -14,-45 -11,87 c -12,86 -47,178 -69,178 -6,0 -21,13 -33,29 -12,16 -46,41 -76,54 -49,23 -64,25 -132,20 -86,-7 -115,-21 -175,-87 l -36,-39 -11,44 c -19,76 -29,83 -121,87 -97,5 -126,-9 -137,-64 -6,-31 -2,-40 23,-67 40,-42 53,-102 45,-210 -6,-81 -9,-90 -33,-104 -24,-15 -28,-15 -49,0 l -23,16 34,9 34,10 -49,22 -48,22 7,101 c 3,56 10,131 14,166 8,63 8,63 -23,82 -37,23 -185,27 -233,7 -30,-13 -159,-9 -278,7 -46,7 -54,5 -84,-21 -34,-28 -34,-31 -16,-105 5,-21 -1,-38 -31,-80 -48,-69 -95,-119 -111,-119 -17,0 -85,69 -81,82 2,6 40,32 83,59 116,70 130,125 45,170 -42,23 -152,26 -190,5 -21,-11 -32,-10 -73,6 -27,10 -54,15 -60,11 -17,5.6875 -31.9375,-0.6875 -65,-4 L 23.125,1135.5937 6.875,1082.375 c -13.1403115,-43.0345 1.3286174,-78.7657 31.5,-105 C 57.375,961.375 74,950 80,950 87,950 89,898 86,788 84,698 81,579 81,522 L 80,420 40,392 C 1,365 13.34835,362.13388 4.8483496,301.13388 4.8483496,249.13388 25.25,241 37.25,236 c 30,-11 57.75,-16 87.75,2 25,15 45,18 120,14 81,-4 93,-2 117,18 45,35 32,108 -23,130 -16,7 -33,18 -39,24 -14,18 -25,211 -12,220 9,6 222,-211 231,-235 2,-6 -7,-21 -18,-33 -28,-29 -21,-65 21,-106 28,-29 33,-30 117,-30 49,0 102,-5 120,-11 50,-18 94,-4 115,35 16,30 17,38 5,71 -12,32 -24,42 -94,76 -75,36 -85,45 -164,145 -59,74 -82,110 -75,119 5,7 24,35 43,61 43,62 231,254 249,254 7,0 26,7 41,15 27,13 30,13 56,-15 24,-25 30,-41 33,-91 7,-101 -28,-231 -67,-244 -44,-14 -38,-72 11,-107 26,-18 49,-23 120,-26 62,-3 93,-1 103,8 12,10 19,10 27,2 20,-20 133,-14 183,9 53,25 80,56 97,110 11,37 28,53 28,26 0,-34 57,-99 110,-125 48,-23 67,-27 146,-27 99,1 112,6 174,67 l 35,34 10,-29 c 16,-49 54,-69 139,-75 73,-4 76,-4 106,27 l 32,31 28,-30 c 27,-29 31,-30 114,-30 71,0 89,3 105,19 11,11 23,15 28,10 13,-13 146,-33 173,-26 43,12 51,22 57,78 6,68 -41,258 -93,369 -86,185 -86,185 -124,187 -25,2 -47,-5 -75,-25 -34,-24 -41,-35 -49,-77 -4,-28 -14,-70 -21,-95 l -12,-45 -8,30 c -5,16 -14,36 -22,43 -7,7 -16,25 -19,40 -18,81 -26,100 -51,124 -25,23 -31,24 -59,14 z M 1793,937 c 13,-17 21,-47 24,-94 l 4,-68 -41,-27 c -29,-20 -53,-28 -84,-28 -47,0 -57,8 -74,57 -10,30 -9,32 19,42 35,12 37,27 5,35 l -24,6 22,42 c 25,49 76,81 109,69 12,-5 30,-20 40,-34 z m 745,-197 c 4,-50 2,-60 -11,-60 -9,0 -23,-10 -31,-22 -15,-21 -16,-21 -36,-3 -23,21 -22,30 21,110 38,68 51,62 57,-25 z m -293,20 c 21,-40 19,-66 -7,-100 -20,-28 -23,-29 -40,-13 -24,22 -23,57 4,104 12,22 23,39 25,39 1,0 9,-13 18,-30 z"
       id="path16" />
    <path
       d="M5056 1141 c-17 -18 -18 -28 -10 -69 9 -45 28 -64 86 -84 4 -2 12 -38 18 -82 15 -105 -1 -216 -32 -216 -60 0 -76 -53 -32 -104 23 -26 34 -30 99 -34 41 -2 84 -2 97 1 43 11 50 39 59 240 7 180 18 241 33 183 8 -34 47 -35 114 -1 98 49 98 21 0 -66 -146 -129 -165 -219 -69 -322 81 -88 220 -89 286 -3 53 69 42 145 -23 167 -30 10 -33 13 -20 23 25 18 78 114 78 140 0 13 5 37 11 54 20 57 -45 144 -131 176 -38 14 -74 16 -220 12 -96 -3 -184 -6 -195 -7 -11 0 -45 2 -75 6 -49 6 -57 5 -74 -14z"
       id="path18" />
    <path
       d="M5129 471 c-36 -36 -38 -81 -8 -131 31 -51 48 -59 111 -60 56 0 58 1 93 46 40 53 44 83 15 129 -22 36 -50 45 -132 45 -41 0 -54 -5 -79 -29z"
       id="path20" />
  </g>
  <g
     id="layer102"
     fill="#f2f2f2"
     stroke="none">
    <path
       d="M8206 4262 c-3 -5 -6 -80 -7 -168 -1 -87 -5 -163 -9 -169 -8 -11 4 -154 20 -227 5 -26 7 -54 4 -62 -3 -7 -1 -63 5 -122 l10 -109 -26 -21 -26 -21 23 -31 c16 -22 35 -34 59 -38 20 -3 46 -9 59 -15 13 -5 61 -9 108 -9 66 0 86 3 90 15 4 8 19 15 34 15 16 0 32 5 36 11 3 6 17 8 29 5 20 -5 27 1 48 46 37 78 32 136 -19 212 -21 32 -53 82 -69 110 -25 42 -37 52 -65 57 -19 3 -62 24 -96 47 -67 44 -74 60 -74 166 0 26 -7 104 -16 171 l-17 123 -31 5 c-17 3 -38 8 -47 12 -10 3 -20 2 -23 -3z m219 -639 c89 -109 109 -185 52 -191 -63 -7 -74 14 -113 221 -8 42 10 33 61 -30z"
       id="path23" />
    <path
       d="M3753 4233 c-16 -24 -18 -56 -19 -283 -1 -140 2 -276 6 -303 6 -39 3 -57 -16 -97 -20 -44 -27 -50 -54 -50 -35 0 -37 -8 -10 -61 30 -58 55 -79 93 -79 37 0 69 27 86 73 12 31 27 28 41 -8 10 -27 60 -41 113 -31 33 6 94 60 115 102 7 12 10 69 9 135 -3 150 -18 177 -133 232 -107 51 -106 50 -126 78 -17 22 -17 29 -3 94 8 39 15 74 15 78 0 4 12 19 26 32 32 30 26 51 -19 70 -19 8 -39 21 -47 29 -20 25 -57 19 -77 -11z m216 -422 c43 -43 54 -80 48 -162 -11 -141 -58 -191 -121 -130 -26 25 -37 49 -50 104 -17 71 -17 73 4 122 33 79 80 105 119 66z"
       id="path25" />
    <path
       d="M7637 4193 c-4 -3 -7 -25 -7 -48 0 -23 -9 -77 -20 -120 -11 -43 -20 -96 -20 -118 0 -42 -22 -154 -46 -227 -8 -25 -21 -149 -29 -280 l-16 -235 48 -42 c34 -30 57 -42 80 -43 31 0 31 0 35 58 2 31 0 165 -4 297 l-7 240 23 23 23 24 13 -81 c7 -44 9 -101 6 -125 -10 -63 29 -256 76 -378 10 -28 40 -44 59 -33 6 4 20 -2 32 -13 12 -11 40 -24 61 -28 l39 -7 -6 48 c-4 26 -25 100 -47 164 -22 64 -47 152 -56 196 -8 43 -24 102 -35 130 -10 27 -19 58 -19 67 0 21 -44 160 -64 203 -8 17 -25 71 -39 120 -63 229 -62 226 -80 208z"
       id="path27" />
    <path
       d="M9431 4137 c-5 -13 -17 -29 -26 -37 -32 -27 -38 -54 -61 -303 -3 -33 -1 -71 6 -90 6 -17 16 -117 22 -221 11 -194 11 -196 -26 -209 -15 -5 13 -65 38 -82 11 -8 34 -15 50 -15 16 0 37 -7 46 -15 11 -10 49 -17 109 -22 l92 -6 11 31 c13 33 30 39 101 34 24 -2 31 4 49 44 26 59 34 182 13 190 -8 3 -17 16 -21 27 -3 12 -22 41 -40 64 -19 23 -34 45 -34 50 0 5 -13 27 -30 49 -16 21 -30 44 -30 50 0 16 87 146 149 223 59 74 67 107 22 98 -15 -3 -33 -1 -38 4 -17 17 -62 -1 -110 -42 -24 -22 -48 -39 -54 -39 -5 0 -9 -11 -9 -25 0 -19 -5 -25 -23 -25 -16 0 -35 -17 -66 -60 -26 -35 -48 -57 -53 -52 -5 5 -13 80 -19 166 -8 126 -14 165 -30 196 -12 22 -23 40 -25 40 -3 0 -8 -10 -13 -23z m151 -589 c103 -131 134 -208 89 -223 -22 -7 -84 16 -96 35 -8 14 -44 184 -45 213 0 28 16 20 52 -25z"
       id="path29" />
    <path
       d="M12129 4135 c-1 -6 0 -20 1 -32 0 -12 -9 -45 -21 -73 l-22 -51 -22 27 -22 28 -7 -48 c-4 -26 -4 -60 -1 -76 5 -22 1 -37 -13 -55 -18 -23 -20 -36 -15 -143 3 -64 5 -126 4 -137 -1 -11 -4 -80 -7 -154 -5 -121 -7 -134 -25 -138 -24 -7 -24 -29 1 -70 15 -25 29 -34 60 -39 22 -4 45 -13 51 -20 6 -8 25 -14 40 -14 38 0 55 37 38 84 -9 26 -9 38 5 64 20 39 20 73 -1 183 -18 93 -15 111 13 88 29 -23 112 -157 119 -191 8 -36 49 -105 76 -128 10 -8 19 -33 21 -55 l3 -40 25 40 c13 21 32 47 42 57 10 10 20 29 24 43 7 28 14 31 32 13 22 -22 12 1 -28 67 -22 36 -40 68 -40 71 0 3 -13 25 -30 49 -16 24 -30 49 -30 56 0 6 -10 27 -21 46 -21 33 -21 37 -6 68 14 29 62 91 172 222 43 51 44 63 2 63 -18 0 -38 5 -44 11 -16 16 -63 -2 -129 -47 -33 -23 -51 -41 -47 -50 3 -10 -3 -14 -20 -14 -18 0 -40 -16 -75 -56 -46 -52 -50 -54 -55 -32 -4 13 -4 59 0 104 4 52 1 93 -6 117 -7 20 -14 62 -16 93 -1 31 -8 61 -14 67 -6 6 -11 7 -12 2z"
       id="path31" />
    <path
       d="M11300 4125 c-8 -120 -7 -714 1 -764 13 -83 27 -105 85 -130 79 -35 78 -37 69 99 -4 66 -3 134 0 152 l8 33 23 -54 c13 -29 24 -68 24 -85 0 -73 13 -138 29 -143 9 -3 26 -15 39 -26 22 -20 24 -20 51 -4 16 9 43 17 60 17 l30 0 -6 53 c-3 28 -10 59 -14 68 -5 11 -2 37 10 70 16 47 18 50 24 29 4 -14 7 -38 7 -54 0 -17 5 -57 11 -90 6 -34 13 -71 15 -83 2 -12 14 -25 26 -29 13 -4 34 -15 48 -25 14 -9 35 -20 48 -24 20 -6 22 -3 22 38 0 25 -9 89 -19 143 -11 55 -22 126 -25 159 -3 33 -10 83 -15 110 -6 28 -15 82 -21 120 -6 39 -17 93 -25 120 -7 28 -21 98 -30 158 -15 88 -20 105 -31 96 -8 -6 -14 -22 -14 -35 0 -13 -7 -41 -15 -61 -14 -36 -51 -159 -97 -318 -19 -67 -38 -105 -38 -75 0 7 -18 30 -41 51 -33 30 -39 41 -31 55 7 13 1 35 -24 87 -18 38 -40 77 -48 86 -9 10 -16 21 -16 25 0 5 -18 46 -40 92 -22 47 -40 88 -40 92 -1 12 -40 58 -40 47z"
       id="path33" />
    <path
       d="M10760 4046 c0 -24 -34 -76 -51 -76 -5 0 -14 20 -20 45 -6 25 -15 45 -20 45 -12 0 -12 -433 0 -446 9 -9 17 -93 25 -269 2 -44 10 -108 18 -143 11 -51 20 -68 51 -93 53 -43 80 -37 90 21 5 25 15 77 24 115 8 39 23 108 33 155 9 47 29 115 44 151 14 36 26 73 26 83 0 22 34 89 54 105 12 10 38 12 91 9 41 -3 75 -1 75 4 0 4 -8 8 -18 8 -10 0 -34 8 -55 19 l-37 19 40 45 c22 25 40 47 40 50 0 7 -60 18 -93 18 -26 0 -62 -24 -119 -77 -15 -15 -23 -14 -87 8 l-71 23 0 62 c0 34 -4 65 -10 68 -5 3 -10 22 -10 41 0 19 -4 34 -10 34 -5 0 -10 -11 -10 -24z m79 -304 c6 -12 6 -34 0 -62 -12 -55 -19 -66 -30 -49 -10 16 -12 113 -2 122 11 12 22 8 32 -11z"
       id="path35" />
    <path
       d="M8889 4011 c-27 -39 -40 -51 -61 -51 -37 0 -76 -19 -83 -40 -3 -9 -17 -23 -30 -30 -40 -21 -26 -92 20 -110 22 -8 24 -14 19 -37 -4 -16 -11 -36 -15 -45 -13 -24 -11 -165 2 -189 8 -17 7 -23 -7 -33 -17 -13 -17 -15 -1 -49 9 -19 17 -57 17 -83 0 -33 6 -54 19 -68 28 -30 31 -108 6 -136 -20 -22 -20 -22 2 -40 25 -20 112 -28 368 -32 l160 -3 3 26 c6 51 -134 147 -278 190 -45 14 -76 49 -66 75 6 14 17 16 80 10 47 -4 83 -3 98 5 19 8 33 7 63 -5 21 -9 40 -15 42 -12 2 2 -4 22 -13 45 -18 46 -12 65 11 35 14 -18 15 -17 9 11 -13 59 -79 107 -183 134 l-66 17 -7 84 c-4 46 -4 88 -1 93 11 18 149 1 203 -25 41 -20 52 -23 61 -12 8 10 16 11 29 4 10 -6 23 -10 29 -10 16 0 14 26 -3 42 -8 8 -25 37 -39 65 -14 27 -37 57 -50 66 -70 46 -198 105 -240 111 -35 6 -50 13 -56 28 -6 18 -11 14 -42 -31z"
       id="path37" />
    <path
       d="M10146 4053 c-3 -3 -6 -22 -6 -41 0 -25 -8 -42 -32 -64 l-33 -31 -9 52 c-11 62 -22 66 -28 9 -3 -24 -13 -72 -22 -107 -15 -54 -16 -73 -7 -122 18 -91 -6 -252 -46 -311 -27 -40 -24 -58 11 -58 33 0 36 -7 20 -58 -18 -62 -18 -111 1 -118 12 -5 13 -10 5 -20 -8 -9 -8 -19 0 -34 9 -18 8 -24 -5 -34 -25 -18 -17 -88 10 -96 11 -3 37 -17 56 -32 20 -16 40 -28 45 -28 6 0 24 15 42 33 31 31 31 33 12 45 -26 16 -26 58 0 72 11 6 20 17 20 24 0 7 -9 21 -20 31 -24 22 -26 74 -4 116 12 24 13 34 3 45 -23 28 4 39 86 36 l77 -4 -6 -141 c-3 -78 -8 -181 -12 -229 l-6 -86 43 2 c31 2 44 7 49 20 3 10 24 30 46 45 38 26 39 29 39 87 0 32 4 65 9 72 11 17 15 147 6 163 -5 6 -3 25 2 40 9 28 13 29 69 29 33 0 59 4 59 10 0 6 -9 10 -20 10 -11 0 -38 10 -60 21 l-41 21 7 47 c16 102 3 432 -19 459 -7 9 -13 10 -24 0 -20 -16 -81 6 -110 41 l-22 26 5 -85 c3 -47 10 -99 15 -115 5 -17 7 -70 5 -118 -3 -91 -16 -133 -16 -56 -1 31 -3 39 -10 29 -8 -16 -6 -88 6 -167 7 -51 2 -52 -66 -18 -27 14 -58 25 -69 25 -10 0 -22 7 -25 16 -3 9 -6 134 -6 279 0 239 -4 287 -24 268z"
       id="path39" />
    <path
       d="M8004 4005 c-3 -20 -3 -83 1 -138 5 -56 8 -157 7 -225 -2 -81 1 -121 8 -117 13 8 13 -48 1 -61 -11 -10 -16 -81 -13 -160 l2 -51 55 -10 c30 -5 59 -7 64 -4 20 13 34 195 35 468 l1 283 -45 19 c-25 10 -59 22 -77 26 -30 6 -32 5 -39 -30z"
       id="path41" />
    <path
       d="M4365 3911 c-27 -4 -61 -13 -75 -20 -27 -15 -100 -89 -100 -102 0 -5 -11 -25 -25 -45 -35 -52 -34 -120 5 -213 40 -99 62 -126 118 -148 56 -21 163 -24 209 -5 37 16 108 97 130 149 18 45 20 140 3 202 -21 78 -143 194 -199 190 -9 -1 -38 -5 -66 -8z m112 -117 c37 -23 56 -73 61 -155 l4 -77 -52 -41 c-47 -37 -57 -41 -109 -41 -87 0 -113 26 -130 133 -7 41 -5 51 15 79 13 18 24 37 24 43 0 18 54 65 86 75 34 10 70 5 101 -16z"
       id="path43" />
    <path
       d="M4849 3907 c-24 -19 -35 -46 -49 -122 -14 -82 -43 -160 -100 -268 -23 -42 -40 -87 -38 -100 4 -31 61 -57 125 -57 42 0 54 4 63 20 9 16 7 26 -9 48 -36 52 -35 71 11 151 24 41 48 76 55 79 17 5 73 -111 73 -151 0 -19 -9 -46 -20 -60 -25 -31 -25 -49 -1 -71 15 -13 34 -16 92 -14 67 3 74 5 77 25 2 14 -4 26 -17 32 -39 21 -36 65 8 155 23 45 44 99 48 119 3 21 9 40 14 42 23 15 79 -135 79 -214 0 -52 -5 -63 -37 -80 -28 -14 -30 -47 -4 -60 10 -6 44 -13 74 -17 49 -6 56 -4 66 14 17 32 13 67 -19 186 -26 97 -118 327 -140 350 -10 10 -48 2 -72 -16 -12 -9 -23 -41 -32 -96 -14 -79 -49 -172 -66 -172 -4 0 -17 21 -28 48 -12 26 -26 54 -31 62 -5 8 -14 33 -20 55 -24 91 -33 115 -46 115 -7 0 -19 2 -27 5 -7 2 -20 -1 -29 -8z"
       id="path45" />
    <path
       d="M5493 3904 c-40 -17 -56 -41 -88 -132 -28 -80 -30 -120 -11 -207 17 -80 35 -112 93 -163 45 -41 51 -44 94 -40 95 9 158 65 175 156 11 55 -4 63 -126 61 -136 -1 -150 5 -150 71 0 62 13 97 53 138 27 28 37 32 83 32 36 0 59 -6 77 -20 36 -29 49 -25 45 12 -2 26 -13 39 -58 70 -47 32 -63 38 -105 37 -27 0 -64 -7 -82 -15z m164 -399 c7 -21 -24 -44 -60 -45 -40 0 -88 27 -81 45 9 22 132 21 141 0z"
       id="path47" />
    <path
       d="M5940 3911 c0 -6 -19 -11 -45 -11 -46 0 -105 -22 -105 -39 0 -5 16 -31 36 -57 36 -46 37 -50 42 -154 4 -99 3 -109 -21 -156 -16 -31 -35 -54 -47 -57 -16 -4 -21 -12 -18 -29 2 -19 8 -23 34 -21 19 2 37 -4 44 -12 8 -9 30 -15 55 -15 39 0 44 3 54 30 12 35 20 37 63 10 63 -38 138 -15 138 43 0 37 -15 51 -48 44 -17 -4 -53 0 -80 8 -76 23 -84 48 -67 219 7 66 13 84 37 111 27 31 37 69 21 78 -20 12 -93 18 -93 8z"
       id="path49" />
    <path
       d="M6442 3889 c3 -29 9 -37 49 -56 l46 -22 12 -93 c13 -97 4 -198 -21 -254 -10 -21 -17 -25 -41 -20 -23 5 -28 3 -25 -11 5 -29 48 -43 118 -41 63 3 65 4 71 33 4 17 8 86 9 155 3 180 11 239 39 261 32 27 61 25 61 -3 0 -46 14 -53 62 -30 91 45 138 38 138 -18 0 -22 -16 -43 -72 -95 -85 -78 -128 -138 -128 -179 0 -69 87 -156 157 -156 72 0 143 55 143 111 0 57 -67 62 -95 8 -16 -31 -60 -48 -77 -31 -7 7 -5 25 8 57 14 37 28 54 66 77 58 36 93 96 103 179 6 50 4 58 -19 86 -40 47 -101 73 -175 73 -54 0 -65 -3 -86 -26 l-25 -27 0 27 0 28 -82 -6 c-124 -9 -139 -9 -191 -1 l-48 8 3 -34z"
       id="path51" />
    <path
       d="M6517 3242 c-22 -24 -21 -50 3 -89 17 -29 25 -33 64 -33 37 0 48 5 70 31 31 37 33 58 6 87 -28 29 -118 32 -143 4z"
       id="path53" />
    <path
       d="M8597 3158 c6 -7 29 -38 53 -68 46 -58 110 -183 110 -212 0 -15 -9 -18 -48 -18 -26 0 -64 -8 -83 -18 -42 -22 -129 -92 -129 -105 0 -17 72 2 114 29 57 38 118 42 206 14 39 -13 73 -20 76 -17 3 3 -10 22 -29 44 -20 23 -43 66 -57 107 -27 83 -92 180 -149 224 -43 32 -83 45 -64 20z"
       id="path55" />
    <path
       d="M9867 3088 c-17 -13 -16 -17 21 -73 21 -33 61 -81 89 -106 50 -47 111 -85 120 -75 3 2 -28 43 -69 90 -40 47 -80 104 -88 128 -17 47 -42 59 -73 36z"
       id="path57" />
    <path
       d="M8254 2926 c-24 -98 44 -262 90 -216 14 13 12 20 -14 61 -17 25 -35 72 -41 105 -14 70 -25 87 -35 50z"
       id="path59" />
    <path
       d="M8970 2640 c-1 -56 -63 -87 -150 -75 -28 4 -50 2 -54 -3 -9 -14 73 -32 148 -32 56 0 67 3 80 22 21 30 20 61 -4 89 l-19 24 -1 -25z"
       id="path61" />
    <path
       d="m 8499,2611 c -34,-28 -16,-56 37,-57 1.968,-0.04 7.7393,19.1708 10.9273,31.7586 3.711,14.6528 -2.0842,33.2304 -2.0842,33.2304 1.6314,-0.1302 16.7599,-16.4045 17.5613,-32.4517 0.7648,-15.3141 -6.3904,-32.1437 -4.9491,-32.0354 34.8314,2.6163 52.5447,14.4543 52.5447,35.4981 0,40 -72,53 -111,21 z"
       id="path63"
       sodipodi:nodetypes="ccsssssc" />
    <path
       d="M9030 2601 c0 -19 74 -82 135 -116 88 -48 255 -97 255 -75 0 16 -42 39 -131 71 -80 29 -136 56 -221 108 -21 13 -38 18 -38 12z"
       id="path65" />
    <path
       d="M8322 2538 c7 -19 38 -22 38 -4 0 10 -9 16 -21 16 -12 0 -19 -5 -17 -12z"
       id="path67" />
    <path
       d="M9600 1752 c0 -11 798 -539 878 -581 29 -15 28 -6 -3 69 -14 33 -25 64 -25 70 0 14 21 3 514 -274 507 -285 606 -339 613 -332 7 7 -189 136 -722 472 -578 366 -614 388 -622 381 -3 -3 6 -36 21 -73 14 -37 24 -70 21 -72 -2 -2 -100 47 -217 111 -173 93 -414 219 -450 235 -5 2 -8 -1 -8 -6z"
       id="path69" />
    <path
       d="M10765 1605 c40 -19 681 -231 723 -240 69 -14 21 35 -82 84 -127 60 -547 172 -637 170 l-34 -1 30 -13z"
       id="path71" />
    <path
       d="M10435 1583 c18 -14 437 -222 690 -343 55 -26 203 -98 328 -159 125 -61 235 -111 244 -111 29 0 -14 37 -132 115 -259 170 -585 324 -988 466 -146 52 -174 58 -142 32z"
       id="path73" />
    <path
       d="M6030 1441 c-5 -11 -10 -41 -10 -68 0 -62 46 -374 71 -480 22 -95 23 -105 8 -155 -9 -33 -14 -38 -39 -38 -17 0 -30 -3 -30 -6 0 -4 16 -28 36 -55 54 -74 112 -80 154 -16 25 40 26 40 55 -8 15 -25 94 -31 133 -11 47 25 76 87 68 150 -20 171 -24 183 -90 254 -44 48 -124 92 -168 92 -43 0 -98 77 -68 95 6 3 10 35 10 71 0 50 4 68 20 84 27 27 16 46 -36 66 -24 9 -49 23 -55 30 -16 20 -47 17 -59 -5z m254 -442 c47 -37 69 -95 69 -179 -2 -135 -31 -162 -98 -89 -79 88 -95 192 -38 259 30 36 33 36 67 9z"
       id="path75" />
    <path
       d="M3948 1383 c-66 -33 -68 -35 -68 -71 0 -43 57 -145 83 -150 14 -3 17 5 17 47 l0 50 58 21 c59 23 128 23 186 0 67 -25 74 -119 11 -146 -44 -18 -138 -17 -190 1 -59 21 -69 19 -109 -25 -53 -59 -48 -96 22 -172 l24 -27 -19 -28 c-53 -74 -56 -89 -37 -160 15 -55 24 -70 57 -94 55 -40 101 -52 167 -46 111 10 250 94 223 135 -6 9 -20 16 -32 15 -18 -2 -21 2 -21 40 0 32 -8 53 -30 84 -26 35 -41 44 -99 62 -38 12 -80 21 -93 21 -14 0 -35 12 -49 26 l-24 26 29 24 c16 14 35 23 43 20 7 -3 48 -8 91 -12 70 -5 80 -4 112 18 71 48 97 123 67 190 -7 14 -32 47 -55 73 -36 38 -56 50 -110 66 -37 11 -87 26 -112 34 -57 19 -62 18 -142 -22z m188 -527 c63 -26 70 -37 73 -117 1 -31 -5 -41 -35 -64 -28 -21 -42 -26 -68 -21 -42 8 -75 44 -83 88 -7 49 22 138 47 138 3 0 33 -11 66 -24z"
       id="path77" />
    <path
       d="M8702 1304 c-39 -27 -28 -75 35 -148 40 -47 43 -76 9 -76 -37 0 -50 -23 -42 -78 8 -61 51 -105 99 -100 43 4 97 84 97 143 0 49 -30 116 -73 165 -17 20 -45 53 -60 74 -32 41 -34 42 -65 20z"
       id="path79" />
    <path
       d="m 51.125,1105.5 c -19,-7 -24.125,-68.75 -4.125,-75.75 9,-4 8,-14.75 36,-32.75 l 49,-32 -7,-275 C 118,385 130.75,387.75 65.25,350 41,315 35.125,315.375 58.125,289.375 c 23,-25 35.125,-18.125 56.875,-9.375 26,17 41,18 120,13 75,-5 92,-3 103,10 19,23 6,53 -29,67 -44,18 -56,45 -64,132 -8,91 0,178 20,204 13,18 24,9 149,-121 74,-76 141,-152 147,-167 10,-25 9,-32 -10,-52 -26,-28 -27,-48 -2,-70 16,-14 35,-17 98,-15 45,2 96,-3 120,-10 53,-17 73,-10 73,27 0,23 -9,35 -41,57 -23,15 -57,32 -76,39 -27,9 -59,42 -138,141 l -102,129 44,53 c 23,30 43,58 43,64 0,6 50,61 110,124 92,93 119,115 156,125 49,14 63,32 45,54 -9,10 -38,14 -102,15 -50,1 -99,6 -109,11 -27,14 -73,12 -95,-4 -19,-13 -19,-15 -1,-55 21,-46 24,-41 -66,-163 -44,-60 -99,-108 -124,-108 -21,0 -114,100 -114,123 0,29 37,64 111,106 79,43 88,56 61,84 -30,29 -149,38 -188,12 -24,-15 -29,-15 -66,0 -25,10 -44,12 -52,7 -6,-5 -20,-6 -31,-1 -22,9 -34.875,2.5 -53.875,-5.5 z"
       id="path81"
       sodipodi:nodetypes="ccccccccccccccsccccscccccsccccccccssccccccc" />
    <path
       d="M943 1110 c-32 -13 -29 -31 13 -71 20 -18 43 -48 50 -66 20 -47 17 -145 -7 -247 -20 -80 -25 -89 -50 -98 -16 -5 -29 -13 -29 -17 0 -43 171 -72 210 -36 19 17 21 17 53 0 51 -27 136 -17 183 21 44 35 78 128 69 184 -4 19 -6 51 -5 70 2 63 1 84 -5 121 -4 23 -3 39 4 43 15 10 14 68 -2 90 -10 14 -25 16 -81 14 -90 -4 -105 -22 -60 -70 39 -42 57 -120 49 -214 -11 -126 -12 -130 -56 -159 l-41 -27 -44 24 c-89 46 -87 40 -69 243 11 133 12 181 4 191 -13 16 -150 19 -186 4z"
       id="path83" />
    <path
       d="M1685 1111 c-27 -4 -61 -13 -75 -20 -30 -17 -100 -87 -100 -101 0 -5 -11 -26 -25 -46 -33 -49 -33 -111 1 -200 50 -133 87 -166 205 -180 82 -9 136 9 188 64 77 84 97 152 77 268 -10 60 -18 78 -55 122 -45 53 -120 103 -150 101 -9 -1 -38 -5 -66 -8z m112 -117 c37 -23 56 -73 61 -155 l4 -77 -52 -41 c-47 -37 -57 -41 -109 -41 -87 0 -113 26 -130 133 -7 41 -5 51 15 79 13 18 24 37 24 43 0 18 54 65 86 75 34 10 70 5 101 -16z"
       id="path85" />
    <path
       d="M2169 1107 c-24 -19 -35 -46 -49 -122 -14 -82 -43 -160 -100 -268 -23 -42 -40 -87 -38 -100 7 -50 164 -82 188 -37 8 16 6 26 -9 47 -37 51 -35 72 11 152 24 41 48 76 55 79 17 5 73 -111 73 -151 0 -19 -9 -46 -20 -60 -25 -31 -25 -49 -1 -71 15 -13 34 -16 92 -14 67 3 74 5 77 25 2 14 -4 26 -17 32 -39 21 -36 65 8 155 23 45 44 99 48 119 3 21 9 40 14 42 23 15 79 -135 79 -214 0 -52 -5 -63 -37 -80 -29 -15 -30 -47 -3 -61 11 -6 44 -14 72 -17 88 -10 96 24 48 201 -26 97 -118 327 -140 350 -10 10 -48 2 -72 -16 -12 -9 -23 -41 -32 -96 -14 -79 -49 -172 -66 -172 -4 0 -17 21 -28 48 -12 26 -26 54 -31 62 -5 8 -14 33 -20 55 -24 91 -33 115 -46 115 -7 0 -19 2 -27 5 -7 2 -20 -1 -29 -8z"
       id="path87" />
    <path
       d="m 2737,1104 -27,-15 28,-37 c 52,-67 84.2717,-194.4938 52.2717,-220.4938 3.3212,-26.06197 1.815,-15.7531 -1,-36.5062 10,-15 5.7283,-26 -1.2717,-33 -6,-6 -9,-65 -9,-151 l 2,-140 -38,-18 c -55,-26 -54,-49 1,-73 25,-10 61,-35 80,-54 19,-19 45,-37 57,-41 39,-13 44,8 21,93 -20,70 -21,86 -11,170 8,68 8,96 0,106 -8,9 -8,28 -1,66 5,28 8,55 6,59 -8,12 13,230 24,250 6,12 17,21 24,21 18,0 46,33 46,53 0,15 -14,17 -112,17 -81,-1 -121,-5 -141,-16 z"
       id="path89"
       sodipodi:nodetypes="cccccsccccssccccccsscc" />
    <path
       d="M3099 1097 c-24 -16 -42 -41 -61 -87 -36 -90 -43 -140 -28 -224 16 -91 37 -131 97 -184 45 -41 51 -44 94 -40 95 9 158 65 175 156 11 55 -4 63 -126 61 -136 -1 -150 5 -150 71 0 62 13 97 53 138 27 28 37 32 83 32 36 0 59 -6 77 -20 36 -29 49 -25 45 12 -2 26 -13 39 -58 70 -48 33 -62 38 -111 38 -42 0 -65 -6 -90 -23z m178 -392 c7 -21 -24 -44 -60 -45 -40 0 -88 27 -81 45 9 22 132 21 141 0z"
       id="path91" />
    <path
       d="M3575 1110 c-11 -5 -34 -9 -51 -9 -28 -1 -74 -35 -74 -55 0 -4 -9 -27 -20 -51 -30 -65 -36 -143 -16 -203 18 -54 104 -175 131 -186 9 -3 54 -6 100 -6 94 0 95 -1 95 -90 0 -74 -9 -90 -56 -111 -24 -10 -44 -23 -44 -28 0 -17 52 -60 104 -86 55 -28 82 -31 88 -12 3 6 6 170 7 364 2 272 6 362 17 399 13 45 13 49 -6 68 -19 20 -20 20 -84 -3 l-65 -23 -30 21 c-30 22 -62 26 -96 11z m96 -111 c68 -23 72 -31 67 -157 -4 -112 -4 -112 -38 -147 -45 -47 -85 -47 -133 -2 -42 40 -60 97 -52 169 10 82 23 106 69 127 51 24 46 23 87 10z"
       id="path93" />
    <path
       d="M4499 1097 c-24 -16 -42 -41 -61 -87 -36 -90 -43 -140 -28 -224 16 -91 37 -131 97 -184 45 -41 51 -44 94 -40 95 9 158 65 175 156 11 55 -4 63 -126 61 -136 -1 -150 5 -150 71 0 62 13 97 53 138 27 28 37 32 83 32 36 0 59 -6 77 -20 36 -29 49 -25 45 12 -2 27 -13 39 -58 70 -47 31 -63 37 -111 37 -42 1 -64 -5 -90 -22z m178 -392 c7 -21 -24 -44 -60 -45 -40 0 -88 27 -81 45 9 22 132 21 141 0z"
       id="path95" />
    <path
       d="m 5082,1089 c 3,-29 9,-37 49,-56 l 46,-22 12,-93 c 13,-97 4,-198 -21,-254 -10,-21 -17,-25 -41,-20 -23,5 -28,3 -25,-11 5,-29 48,-43 118,-41 63,3 65,4 71,33 4,17 8,86 9,155 3,180 11,239 39,261 32,27 61,25 61,-3 0,-46 14,-53 62,-30 91,45 138,38 138,-18 0,-22 -16,-43 -72,-95 -85,-78 -128,-138 -128,-179 0,-69 87,-156 157,-156 72,0 143,55 143,111 0,57 -67,62 -95,8 -16,-31 -60,-48 -77,-31 -7,7 -5,25 8,57 14,37 28,54 66,77 58,36 93,96 103,179 6,50 4,58 -19,86 -40,47 -101,73 -175,73 -54,0 -65,-3 -86,-26 l -30.6859,-39.1314 -1.0529,0.9592 -1.8226,1.3605 2.9306,7.6593 L 5400,1094 v 28 l -82,-6 c -124,-9 -139,-9 -191,-1 l -48,8 z"
       id="path97"
       sodipodi:nodetypes="cccccccccccscscssscsccccsccccccccccc" />
    <path
       d="M6691 1110 c-43 -7 -61 -15 -86 -42 -46 -48 -85 -132 -85 -181 0 -56 61 -177 120 -238 38 -39 54 -48 107 -59 98 -20 148 -8 200 48 24 26 48 64 54 86 10 37 4 111 -11 131 -4 6 -15 34 -25 64 -11 33 -34 72 -59 99 -46 50 -122 103 -145 101 -9 -1 -40 -5 -70 -9z m129 -119 c43 -31 71 -94 76 -174 l5 -72 -39 -32 c-48 -39 -106 -46 -147 -19 -32 21 -75 109 -74 151 1 60 32 128 69 153 38 25 67 24 110 -7z"
       id="path99" />
    <path
       d="M7212 1100 c-7 -11 -31 -30 -55 -41 -37 -18 -44 -27 -60 -77 -9 -31 -17 -62 -17 -68 0 -27 70 -161 94 -181 29 -25 34 -60 11 -69 -21 -9 -72 14 -113 50 l-33 29 3 -53 c4 -73 24 -86 153 -98 55 -6 102 -8 105 -5 2 2 -4 27 -14 55 -34 97 -66 242 -60 273 4 17 15 47 26 68 16 32 23 38 46 35 l27 -3 -4 -80 c-1 -44 -7 -85 -13 -92 -6 -8 -3 -18 11 -32 12 -12 21 -30 21 -40 0 -25 55 -108 80 -121 30 -16 55 -12 78 13 19 20 22 35 22 108 0 84 0 85 -35 119 -41 40 -43 54 -11 75 22 15 27 15 55 0 17 -9 40 -34 52 -58 12 -23 31 -55 42 -71 18 -25 19 -32 8 -63 -10 -26 -10 -38 -2 -46 17 -17 13 -25 -20 -42 -27 -14 -30 -20 -24 -48 14 -68 66 -75 119 -17 43 48 47 90 16 188 -11 35 -20 75 -20 88 0 32 -98 161 -128 169 -13 3 -35 17 -48 32 l-24 26 -18 -24 -19 -23 -12 22 c-15 28 -26 22 -52 -29 l-20 -40 -32 23 c-38 28 -105 68 -115 68 -4 0 -13 -9 -20 -20z m198 -212 c0 -19 -2 -20 -10 -8 -13 19 -13 30 0 30 6 0 10 -10 10 -22z m40 -99 c0 -9 3 -31 6 -48 5 -24 3 -31 -9 -31 -17 0 -33 42 -40 110 l-6 45 25 -30 c13 -16 24 -37 24 -46z"
       id="path101" />
    <path
       d="M7853 1096 c-18 -12 -41 -34 -52 -48 -40 -51 -53 -173 -25 -253 17 -51 87 -149 135 -189 36 -30 96 -35 151 -11 30 12 36 20 42 55 3 22 9 40 12 40 13 0 74 -36 118 -71 66 -53 89 -51 110 6 21 54 40 57 79 15 37 -39 72 -48 97 -25 64 58 36 196 -33 169 -9 -3 -19 -14 -22 -25 -9 -27 -41 -24 -62 7 -10 14 -30 40 -44 57 -36 45 -57 109 -63 202 -7 89 -14 102 -46 85 -16 -9 -25 -9 -33 -1 -16 16 -25 14 -38 -10 -8 -16 -7 -43 6 -112 9 -51 20 -96 25 -102 4 -5 11 -35 14 -66 8 -65 -6 -85 -66 -90 -30 -3 -41 1 -59 25 -12 16 -37 35 -56 42 -18 8 -33 18 -33 23 0 14 -86 61 -112 61 -39 0 -61 22 -53 53 5 19 14 27 29 27 12 0 26 8 33 19 17 27 61 36 83 16 22 -20 80 -37 80 -24 0 21 -24 56 -71 102 -57 55 -94 60 -146 23z m117 -325 c34 -25 47 -63 32 -96 -6 -14 -17 -25 -24 -25 -13 1 -80 96 -94 134 -7 17 -4 18 27 12 19 -3 45 -15 59 -25z"
       id="path103" />
    <path
       d="M5157 442 c-22 -24 -21 -50 3 -89 17 -29 25 -33 64 -33 37 0 48 5 70 31 31 37 33 58 6 87 -28 29 -118 32 -143 4z"
       id="path105" />
  </g>
</svg>
